<svg xmlns="http://www.w3.org/2000/svg" viewBox="0 0 24 24" fill="none"><path d="M8.595 2.283a3.763 3.763 0 0 0-2.564 1.436c-.238.313-.563.968-.649 1.306a4.254 4.254 0 0 0 0 1.95c.087.34.411.993.653 1.311.111.146.318.37.459.496l.258.231-.212.172c-.474.386-1.002 1.226-1.158 1.84A4.159 4.159 0 0 0 5.4 13.03c.171.623.599 1.31 1.093 1.751l.259.232-.212.172c-.474.386-1.002 1.226-1.158 1.84a4.24 4.24 0 0 0 .001 1.95c.081.314.372.933.565 1.198.387.533.857.921 1.457 1.204a3.62 3.62 0 0 0 1.96.34 3.21 3.21 0 0 0 1.255-.356c.84-.407 1.381-.958 1.78-1.813.314-.671.358-1.05.359-3.057l.001-1.488.179.12c1.011.683 2.419.805 3.556.308a3.774 3.774 0 0 0 2.166-2.651c.079-.38.089-1.092.02-1.46-.147-.797-.645-1.666-1.225-2.138l-.208-.169.258-.231c.35-.313.624-.685.855-1.162a3.21 3.21 0 0 0 .356-1.255 3.564 3.564 0 0 0-.356-1.985c-.407-.84-.958-1.381-1.813-1.78-.399-.187-.7-.267-1.193-.319-.447-.047-6.314-.045-6.76.002M11.24 6v2.24H9.956c-1.421 0-1.571-.019-2.016-.253a2.716 2.716 0 0 1-.52-.407c-.456-.456-.66-.944-.66-1.58 0-.636.204-1.124.66-1.58.306-.306.59-.479.96-.585.204-.059.435-.07 1.55-.072l1.31-.003V6m4.334-2.177c.376.097.697.287 1.006.597.456.456.66.944.66 1.58 0 .636-.204 1.124-.66 1.58a2.716 2.716 0 0 1-.52.407c-.445.234-.595.253-2.016.253H12.76V3.76h1.284c1.042 0 1.331.012 1.53.063M11.24 12v2.24H9.956c-1.42 0-1.569-.019-2.016-.252-.31-.162-.766-.618-.928-.928a2.244 2.244 0 0 1 .383-2.618c.317-.32.615-.497 1.011-.601.259-.068.444-.077 1.564-.079l1.27-.002V12m4.338-2.161c.411.106.705.278 1.027.603.427.431.634.936.635 1.552 0 .642-.202 1.13-.659 1.587-.457.457-.945.659-1.587.659a2.106 2.106 0 0 1-1.552-.635c-.325-.322-.497-.616-.603-1.027a2.203 2.203 0 0 1 .586-2.153 2.203 2.203 0 0 1 2.153-.586m-4.338 7.205c0 1.421-.019 1.571-.253 2.016-.163.309-.618.764-.927.927a2.325 2.325 0 0 1-2.12 0c-.309-.163-.764-.618-.927-.927a2.24 2.24 0 0 1 .382-2.618c.317-.32.615-.497 1.011-.601.259-.068.444-.077 1.564-.079l1.27-.002v1.284" fill="currentColor" fill-rule="evenodd"/></svg>
