<svg xmlns="http://www.w3.org/2000/svg" viewBox="0 0 24 24" fill="none"><path d="M4.701 4.285c-.333.048-.64.213-.921.495-.292.291-.445.587-.498.96-.055.38-.055 10.14 0 10.52.053.373.206.669.498.96.291.292.587.445.96.498.382.055 14.138.055 14.52 0 .373-.053.669-.206.96-.498.292-.291.445-.587.498-.96.055-.38.055-10.14 0-10.52-.053-.373-.206-.669-.498-.96-.291-.292-.587-.445-.96-.498-.35-.05-14.214-.048-14.559.003m14.466 1.541c.07.064.073.276.073 5.167 0 4.69-.005 5.107-.066 5.174-.064.07-.339.073-7.167.073-6.551 0-7.106-.005-7.174-.066-.07-.064-.073-.276-.073-5.167 0-4.69.005-5.107.066-5.174.064-.07.339-.073 7.167-.073 6.551 0 7.106.005 7.174.066M2.805 19.28c-.381.09-.618.495-.526.897.071.31.318.523.653.562.114.014 4.276.019 9.248.013 9.701-.013 9.105 0 9.334-.207.15-.136.219-.308.219-.545 0-.237-.069-.409-.219-.545-.229-.207.377-.195-9.434-.201-5.027-.003-9.201.008-9.275.026" fill="currentColor" fill-rule="evenodd"/></svg>
