<svg xmlns="http://www.w3.org/2000/svg" viewBox="0 0 24 24" fill="none"><path d="M11.555 2.279a3.814 3.814 0 0 0-2.114.987 3.825 3.825 0 0 0-1.07 1.806c-.104.386-.104.397-.131 2.448-.031 2.324-.019 2.232-.359 2.947-.107.224-.359.689-.561 1.032-.808 1.377-1.085 2.136-1.204 3.306a4.848 4.848 0 0 0 .13 1.663c.13.486.14.46-.205.519-.385.065-.495.113-.64.277-.211.241-.225.392-.101 1.09l.108.615-.274.394c-.478.687-.534.792-.534 1.007 0 .319.179.588.468.703.062.025 1.039.182 2.172.35 2.257.334 2.387.342 2.784.16.3-.137.614-.446.756-.743.101-.211.129-.241.205-.222.53.133 2.083.16 2.745.048.214-.036.396-.066.404-.066.008 0 .071.115.141.255.154.314.404.551.758.718.24.114.304.127.627.125.298-.001.398-.019.58-.103.262-.121 3.481-2.233 3.675-2.411a.695.695 0 0 0 .183-.815c-.095-.226-.187-.303-.77-.637-.458-.262-.548-.329-.599-.45-.086-.202-.079-.454.023-.818.2-.718.202-1.581.006-2.484-.177-.811-.45-1.351-1.606-3.18-.753-1.191-1.099-1.945-1.312-2.86-.025-.11-.061-.713-.079-1.34-.03-1.025-.044-1.179-.135-1.528a4.407 4.407 0 0 0-.557-1.23c-.159-.234-.677-.752-.911-.911-.743-.505-1.751-.757-2.603-.652m.987 1.542a2.29 2.29 0 0 1 1.637 1.637c.043.167.061.442.061.913 0 .624-.005.673-.07.653a152.32 152.32 0 0 0-1.29-.327c-1.128-.284-1.252-.307-1.64-.308a2.537 2.537 0 0 0-1.193.254 4.187 4.187 0 0 1-.273.117c-.045 0-.007-1.092.047-1.302.2-.785.837-1.429 1.619-1.635a2.674 2.674 0 0 1 1.102-.002m-.087 4.311.995.25-.247.229c-.412.382-1.33 1.039-1.916 1.373l-.133.076-.087-.116c-.376-.501-.613-.859-.785-1.189a3.597 3.597 0 0 1-.202-.423c0-.032.65-.361.84-.425.203-.069.591-.012 1.535.225m2.565 1.928c.258.544.553 1.053 1.289 2.22.694 1.1.919 1.588 1.032 2.235.058.328.08 1.105.036 1.267-.018.066-.106.103-.458.195l-.436.113-.563-.326c-.605-.35-.8-.41-1.056-.325a.835.835 0 0 0-.451.374c-.049.095-.084.473-.157 1.661-.051.847-.107 1.553-.125 1.569-.154.149-1.84.253-2.547.157-.407-.055-1.019-.219-1.091-.292a51.353 51.353 0 0 1-.867-1.568c-.937-1.736-.945-1.746-1.366-1.773-.223-.014-.281-.002-.436.088a1.143 1.143 0 0 1-.206.105c-.049 0 .015-1.208.076-1.447.176-.694.355-1.094.915-2.055.481-.823.701-1.249.832-1.61.05-.138.103-.237.118-.22l.241.312c.327.427.679.813.816.896a.798.798 0 0 0 .558.085c.188-.042.944-.474 1.652-.943.602-.4 1.305-.957 1.634-1.295l.2-.206.057.132c.032.072.168.365.303.651m1.334 7.58c.08 0 .304-.043.497-.094.194-.052.358-.083.366-.07.008.013.054.168.103.344.049.176.113.367.143.424.064.125.3.339.414.375.046.015.083.041.083.059 0 .041-2.187 1.486-2.288 1.512-.059.016-.072-.005-.072-.123 0-.165.107-1.953.142-2.373l.024-.287.221.117a.966.966 0 0 0 .367.116m-6.929 2.54c-.007.022-.048.037-.089.033-.162-.014-2.637-.383-2.65-.394-.007-.007.036-.096.095-.197.156-.266.177-.409.115-.789-.081-.498-.107-.455.314-.532.439-.081.604-.165.785-.405l.136-.178.654 1.211c.36.666.648 1.229.64 1.251" fill="currentColor" fill-rule="evenodd"/></svg>
