<svg xmlns="http://www.w3.org/2000/svg" viewBox="0 0 24 24" fill="none"><path d="M7.84 2.658c-1.485.14-2.79.276-2.9.303-.983.238-1.83 1.141-2.004 2.134-.032.179-.166 1.531-.299 3.005-.178 1.965-.235 2.755-.215 2.96.049.505.24 1 .539 1.398.083.111 2.012 2.057 4.285 4.325 4.07 4.059 4.139 4.125 4.46 4.286.463.232.829.305 1.408.281.319-.014.548-.046.726-.104.592-.191.56-.163 3.902-3.504 3.341-3.342 3.313-3.31 3.504-3.902.058-.178.09-.407.104-.726.024-.579-.049-.945-.281-1.408-.161-.321-.227-.39-4.286-4.46-2.268-2.273-4.219-4.205-4.336-4.293a3.109 3.109 0 0 0-.936-.457c-.445-.121-.86-.103-3.671.162M11.2 3.97c.077.023.203.083.28.133.077.049 1.96 1.914 4.185 4.143 3.866 3.874 4.05 4.064 4.13 4.286a1.28 1.28 0 0 1 0 .896c-.08.221-.231.379-3.11 3.257-2.878 2.879-3.036 3.03-3.257 3.11a1.28 1.28 0 0 1-.896 0c-.222-.08-.412-.264-4.303-4.15-4.578-4.571-4.31-4.268-4.308-4.861 0-.178.106-1.477.235-2.886.263-2.87.253-2.812.596-3.15.35-.344.265-.328 3.284-.607 1.487-.138 2.776-.242 2.864-.232.088.01.223.037.3.061M9.046 6.721A2.747 2.747 0 0 0 6.939 8.3c-.184.399-.234.656-.23 1.18.004.537.108.928.36 1.356.185.314.642.777.946.959.822.492 1.955.512 2.758.048.642-.371 1.15-1.022 1.328-1.703.084-.319.084-1.079.001-1.4-.239-.916-1.045-1.727-1.942-1.954a3.54 3.54 0 0 0-1.114-.065m.848 1.56c.29.109.596.415.705.705A1.246 1.246 0 0 1 9.44 10.68c-.874 0-1.467-.871-1.157-1.7.232-.62.969-.939 1.611-.699" fill="currentColor" fill-rule="evenodd"/></svg>
