<svg xmlns="http://www.w3.org/2000/svg" viewBox="0 0 24 24" fill="none"><path d="M4.701 3.285c-.333.048-.64.213-.921.495-.292.291-.445.587-.498.96-.055.382-.055 14.138 0 14.52.053.373.206.669.498.96.291.292.587.445.96.498.382.055 14.138.055 14.52 0 .373-.053.669-.206.96-.498.292-.291.445-.587.498-.96.055-.382.055-14.138 0-14.52-.053-.373-.206-.669-.498-.96-.291-.292-.587-.445-.96-.498-.35-.05-14.214-.048-14.559.003m14.466 1.541c.07.064.073.339.073 7.167 0 6.551-.005 7.106-.066 7.174-.064.07-.339.073-7.167.073-6.551 0-7.106-.005-7.174-.066-.07-.064-.073-.339-.073-7.167 0-6.551.005-7.106.066-7.174.064-.07.339-.073 7.167-.073 6.551 0 7.106.005 7.174.066M8.02 8.503a.744.744 0 0 0-.358.968c.041.099.462.551 1.249 1.339L10.098 12l-1.187 1.19c-.787.788-1.208 1.24-1.249 1.339-.187.448.097.969.556 1.021.415.047.345.1 2.016-1.563 1.018-1.013 1.56-1.581 1.609-1.687a.667.667 0 0 0 0-.6c-.092-.198-3.049-3.156-3.216-3.218-.164-.061-.469-.051-.607.021m5.785 5.776c-.615.151-.744.984-.209 1.348.181.124.404.141 1.584.126 1.118-.014 1.169-.023 1.365-.239.142-.157.188-.283.188-.514 0-.231-.046-.357-.188-.514-.199-.22-.236-.225-1.465-.233-.627-.004-1.201.007-1.275.026" fill="currentColor" fill-rule="evenodd"/></svg>
